<?xml version="1.0" standalone="no"?>
<!DOCTYPE svg PUBLIC "-//W3C//DTD SVG 20010904//EN"
 "http://www.w3.org/TR/2001/REC-SVG-20010904/DTD/svg10.dtd">
<svg version="1.0" xmlns="http://www.w3.org/2000/svg"
 width="70.000000pt" height="70.000000pt" viewBox="0 0 70.000000 70.000000"
 preserveAspectRatio="xMidYMid meet">
<metadata>
Created by potrace 1.11, written by Peter Selinger 2001-2013
</metadata>
<g transform="translate(0.000000,70.000000) scale(0.100000,-0.100000)"
fill="#000000" stroke="none">
<path d="M0 350 l0 -350 158 0 c146 1 154 2 118 15 -54 19 -102 70 -128 134
-20 49 -22 75 -22 201 0 126 2 152 22 201 26 64 74 115 128 134 36 13 28 14
-118 15 l-158 0 0 -350z"/>
<path d="M405 691 c70 -17 111 -59 146 -148 20 -50 23 -76 23 -193 0 -117 -3
-143 -23 -193 -35 -89 -76 -131 -146 -148 -17 -4 42 -7 133 -8 l162 -1 0 350
0 350 -162 -1 c-91 -1 -150 -4 -133 -8z"/>
<path d="M260 590 c-45 -49 -55 -91 -55 -240 0 -151 16 -213 62 -250 53 -42
53 -43 53 250 0 241 -2 270 -16 270 -9 0 -29 -14 -44 -30z"/>
<path d="M390 350 c0 -148 3 -270 8 -270 21 0 52 34 73 82 21 47 24 68 24 188
0 120 -3 141 -24 188 -21 48 -52 82 -73 82 -5 0 -8 -121 -8 -270z"/>
</g>
</svg>
